<?xml version="1.0" encoding="UTF-8"?>
<svg id="Layer_2" data-name="Layer 2" xmlns="http://www.w3.org/2000/svg" viewBox="0 0 213 148.15">
  <defs>
    <style>
      .cls-1 {
        fill: #f8402f;
      }

      .cls-2 {
        fill: #1b1d1e;
      }
    </style>
  </defs>
  <g id="Layer_1-2" data-name="Layer 1">
    <g>
      <g>
        <path class="cls-1" d="M192.71,27.12h19.73v7.53c0,2.89-.51,5.3-1.52,7.21-1.02,1.91-2.32,3.5-3.93,4.77-1.6,1.27-2.59,2.19-4.74,3.1-2.38,1.01-6.53,1.53-9.35,1.39l-.14-4.8c1.47-.57,2.73-1.15,3.77-1.74,1.05-.59,1.9-1.23,2.56-1.92,.66-.69,1.15-1.49,1.46-2.37,.31-.89,.46-3.38,.46-4.59h-8.3v-8.57Z"/>
        <ellipse class="cls-1" cx="202.5" cy="15.08" rx="8.39" ry="8.25"/>
        <g>
          <path class="cls-2" d="M3.09,12.46c2.06-3.92,4.87-6.98,8.43-9.17C15.07,1.1,19.07,0,23.49,0c5.18,0,9.71,1.44,13.6,4.33,3.89,2.89,6.61,6.89,8.16,11.99h-10.68c-1.06-2.41-2.55-4.21-4.48-5.42-1.92-1.2-4.15-1.81-6.67-1.81-2.7,0-5.1,.69-7.2,2.06-2.1,1.37-3.74,3.31-4.91,5.81-1.17,2.5-1.76,5.44-1.76,8.81s.59,6.25,1.76,8.78c1.17,2.53,2.81,4.48,4.91,5.85,2.1,1.37,4.5,2.06,7.2,2.06,2.52,0,4.74-.61,6.67-1.84,1.92-1.23,3.42-3.05,4.48-5.45h10.68c-1.55,5.15-4.26,9.16-8.13,12.03-3.87,2.87-8.42,4.3-13.64,4.3-4.42,0-8.42-1.09-11.98-3.29-3.56-2.19-6.37-5.24-8.43-9.14-2.06-3.9-3.09-8.33-3.09-13.29s1.03-9.4,3.09-13.33Z"/>
          <path class="cls-2" d="M67.41,11.78c1.95-1.22,4.18-1.83,6.69-1.83v10.75h-2.49c-2.96,0-5.19,.76-6.69,2.27-1.5,1.51-2.25,4.15-2.25,7.9v20.19h-9.41V10.54h9.41v6.29c1.21-2.15,2.79-3.83,4.74-5.05Z"/>
          <path class="cls-2" d="M114.69,33.87h-27.22c.22,2.93,1.16,5.22,2.82,6.88,1.66,1.66,3.7,2.49,6.12,2.49,3.5,0,5.98-1.63,7.46-4.9h10.15c-1.08,3.9-3.14,7.11-6.18,9.62-3.05,2.51-6.79,3.77-11.22,3.77-3.59,0-6.8-.87-9.64-2.6-2.85-1.73-5.06-4.18-6.65-7.35-1.59-3.17-2.39-6.83-2.39-10.97s.78-7.88,2.35-11.05c1.57-3.17,3.76-5.61,6.59-7.32,2.82-1.71,6.07-2.56,9.75-2.56s6.71,.83,9.51,2.49c2.8,1.66,4.97,4.01,6.52,7.06,1.55,3.05,2.32,6.55,2.32,10.5,0,1.46-.09,2.78-.27,3.95Zm-9.48-6.88c-.05-2.63-.92-4.74-2.62-6.33-1.7-1.58-3.79-2.38-6.25-2.38-2.33,0-4.29,.77-5.88,2.3-1.59,1.54-2.57,3.67-2.92,6.4h17.68Z"/>
          <path class="cls-2" d="M121.58,19.75c1.5-3.17,3.54-5.61,6.12-7.32,2.58-1.71,5.45-2.56,8.64-2.56,2.78,0,5.21,.61,7.29,1.83,2.08,1.22,3.75,2.76,5.01,4.61v-5.78h9.48V51.06h-9.48v-5.93c-1.21,1.9-2.88,3.47-5.01,4.72-2.13,1.24-4.58,1.87-7.36,1.87-3.14,0-5.99-.88-8.57-2.63-2.58-1.76-4.62-4.23-6.12-7.43-1.5-3.19-2.25-6.86-2.25-11.01s.75-7.73,2.25-10.9Zm25.71,4.65c-.9-1.78-2.11-3.15-3.63-4.1-1.52-.95-3.16-1.43-4.91-1.43s-3.36,.46-4.84,1.39c-1.48,.93-2.68,2.28-3.6,4.06-.92,1.78-1.38,3.89-1.38,6.33s.46,4.57,1.38,6.4c.92,1.83,2.13,3.23,3.63,4.21,1.5,.98,3.1,1.46,4.81,1.46s3.38-.48,4.91-1.43c1.52-.95,2.73-2.32,3.63-4.1,.9-1.78,1.34-3.91,1.34-6.4s-.45-4.62-1.34-6.4Z"/>
          <path class="cls-2" d="M178.2,18.95v19.61c0,1.37,.3,2.35,.91,2.96,.6,.61,1.62,.91,3.06,.91h4.37v8.63h-5.91c-7.93,0-11.9-4.19-11.9-12.58V18.95h-4.44V10.54h4.44V.51h9.48V10.54h8.33v8.41h-8.33Z"/>
        </g>
        <g>
          <path class="cls-2" d="M40.54,121.32h-9.14L10.71,87.22v34.1H1.58v-49.76H10.71l20.69,34.17v-34.17h9.14v49.76Z"/>
          <path class="cls-2" d="M49.31,90.85c1.46-3.08,3.44-5.46,5.94-7.12,2.5-1.66,5.3-2.49,8.39-2.49,2.7,0,5.06,.59,7.08,1.78,2.02,1.19,3.64,2.68,4.86,4.48v-5.62h9.2v39.44h-9.2v-5.77c-1.17,1.85-2.8,3.38-4.86,4.59-2.07,1.21-4.45,1.82-7.15,1.82-3.05,0-5.82-.85-8.32-2.56-2.5-1.71-4.48-4.12-5.94-7.23-1.46-3.11-2.19-6.68-2.19-10.71s.73-7.52,2.19-10.61Zm24.96,4.52c-.87-1.73-2.04-3.06-3.52-3.99-1.48-.93-3.07-1.39-4.76-1.39s-3.26,.45-4.7,1.35c-1.44,.9-2.6,2.22-3.49,3.95-.89,1.73-1.34,3.79-1.34,6.16s.45,4.45,1.34,6.23c.89,1.78,2.07,3.14,3.52,4.09,1.46,.95,3.01,1.42,4.67,1.42s3.28-.46,4.76-1.39c1.48-.93,2.65-2.25,3.52-3.99,.87-1.73,1.31-3.81,1.31-6.23s-.44-4.5-1.31-6.23Z"/>
          <path class="cls-2" d="M104.29,90.07v19.08c0,1.33,.29,2.29,.88,2.88,.59,.59,1.58,.89,2.97,.89h4.24v8.4h-5.74c-7.7,0-11.55-4.08-11.55-12.24v-19.01h-4.31v-8.19h4.31v-9.75h9.2v9.75h8.09v8.19h-8.09Z"/>
          <path class="cls-2" d="M119.52,75.51c-1.07-1.11-1.6-2.5-1.6-4.16s.53-3.05,1.6-4.16c1.07-1.11,2.4-1.67,4.01-1.67s2.95,.56,4.01,1.67c1.07,1.12,1.6,2.5,1.6,4.16s-.53,3.05-1.6,4.16c-1.07,1.12-2.4,1.67-4.01,1.67s-2.95-.56-4.01-1.67Zm8.52,6.37v39.44h-9.14v-39.44h9.14Z"/>
          <path class="cls-2" d="M143.64,119.43c-2.78-1.68-4.97-4.07-6.56-7.15-1.59-3.08-2.38-6.64-2.38-10.68s.82-7.59,2.45-10.68c1.63-3.08,3.86-5.47,6.69-7.15,2.83-1.68,5.98-2.53,9.46-2.53s6.63,.84,9.46,2.53c2.83,1.69,5.06,4.07,6.69,7.15,1.63,3.09,2.45,6.64,2.45,10.68s-.84,7.59-2.51,10.68c-1.67,3.09-3.94,5.47-6.79,7.15-2.85,1.69-6.04,2.53-9.56,2.53s-6.61-.84-9.4-2.53Zm14.06-7.47c1.46-.88,2.62-2.19,3.49-3.95,.87-1.76,1.31-3.89,1.31-6.41,0-3.75-.9-6.63-2.71-8.65-1.81-2.02-4.01-3.03-6.62-3.03s-4.8,1.01-6.56,3.03c-1.76,2.02-2.64,4.9-2.64,8.65s.86,6.63,2.58,8.65c1.72,2.02,3.88,3.03,6.49,3.03,1.65,0,3.21-.44,4.67-1.32Z"/>
          <path class="cls-2" d="M209.02,85.76c2.65,2.97,3.98,7.11,3.98,12.42v23.13h-9.14v-21.78c0-3.13-.72-5.54-2.15-7.23-1.44-1.68-3.39-2.53-5.87-2.53s-4.51,.84-5.97,2.53c-1.46,1.69-2.19,4.09-2.19,7.23v21.78h-9.14v-39.44h9.14v4.91c1.22-1.71,2.77-3.05,4.67-4.02,1.89-.97,3.97-1.46,6.23-1.46,4.31,0,7.79,1.48,10.44,4.45Z"/>
        </g>
      </g>
      <g>
        <path class="cls-2" d="M3.5,143.71l-.83,1.9H1.18l3.64-8.35h1.49l3.64,8.35h-1.49l-.83-1.9H3.5Zm3.57-1.3l-1.5-3.44-1.5,3.44h3Z"/>
        <path class="cls-2" d="M25.25,137.26h1.39v8.35h-1.51l-4.68-6.1v6.1h-1.39v-8.35h1.39l4.8,6.24v-6.24Z"/>
        <path class="cls-2" d="M36.2,145.61h-1.21v-.85c-.52,.63-1.22,.94-2.09,.94-.65,0-1.2-.19-1.62-.56-.43-.37-.64-.87-.64-1.5s.23-1.09,.69-1.4c.46-.31,1.08-.47,1.86-.47h1.71v-.24c0-.84-.46-1.27-1.39-1.27-.58,0-1.19,.22-1.82,.65l-.59-.84c.76-.61,1.63-.92,2.6-.92,.74,0,1.34,.19,1.81,.57,.47,.38,.7,.97,.7,1.79v4.1Zm-1.32-2.37v-.54h-1.49c-.95,0-1.43,.3-1.43,.91,0,.31,.12,.55,.35,.71,.24,.16,.57,.25,.99,.25s.79-.12,1.1-.36,.47-.56,.47-.97Z"/>
        <path class="cls-2" d="M41.97,140.33v3.23c0,.3,.08,.54,.24,.72,.16,.18,.38,.27,.66,.27s.56-.14,.82-.42l.54,.94c-.46,.42-.98,.63-1.54,.63s-1.04-.2-1.44-.59c-.4-.39-.6-.93-.6-1.6v-3.19h-.79v-1.08h.79v-2h1.32v2h1.65v1.08h-1.65Z"/>
        <path class="cls-2" d="M47.73,137.99c-.17-.17-.25-.37-.25-.6s.08-.43,.25-.6c.17-.17,.36-.25,.59-.25s.43,.08,.59,.25c.17,.17,.25,.37,.25,.6s-.08,.43-.25,.6c-.17,.17-.36,.25-.59,.25s-.43-.08-.59-.25Zm1.24,7.63h-1.32v-6.36h1.32v6.36Z"/>
        <path class="cls-2" d="M58.5,144.76c-.63,.63-1.42,.95-2.36,.95s-1.73-.32-2.36-.95c-.63-.63-.95-1.41-.95-2.32s.32-1.69,.95-2.32c.63-.63,1.42-.95,2.36-.95s1.73,.32,2.36,.95c.63,.63,.95,1.41,.95,2.32s-.32,1.69-.95,2.32Zm-3.79-.82c.37,.39,.85,.58,1.42,.58s1.05-.19,1.42-.58c.37-.39,.56-.89,.56-1.5s-.19-1.11-.56-1.5c-.37-.39-.85-.58-1.42-.58s-1.05,.19-1.42,.58c-.37,.39-.56,.89-.56,1.5s.19,1.11,.56,1.5Z"/>
        <path class="cls-2" d="M64.63,142.17v3.44h-1.32v-6.36h1.32v1.16c.21-.39,.51-.7,.88-.92,.37-.22,.78-.33,1.21-.33,.71,0,1.28,.22,1.72,.66,.44,.44,.66,1.07,.66,1.9v3.9h-1.32v-3.49c0-1.17-.48-1.76-1.44-1.76-.46,0-.85,.15-1.19,.46-.34,.31-.51,.75-.51,1.34Z"/>
        <path class="cls-2" d="M79.1,145.61v-8.35h1.39v7.02h3.77v1.34h-5.16Z"/>
        <path class="cls-2" d="M93.81,143.02h-4.93c.03,.46,.24,.83,.63,1.12,.39,.28,.83,.42,1.32,.42,.79,0,1.39-.25,1.8-.75l.76,.84c-.68,.71-1.56,1.06-2.65,1.06-.88,0-1.63-.3-2.25-.89-.62-.59-.93-1.39-.93-2.39s.31-1.79,.95-2.38c.63-.59,1.37-.88,2.23-.88s1.58,.26,2.18,.78c.6,.52,.9,1.24,.9,2.16v.92Zm-4.93-1.05h3.6c0-.53-.17-.94-.5-1.23s-.74-.43-1.22-.43-.92,.15-1.31,.45c-.39,.3-.58,.7-.58,1.21Z"/>
        <path class="cls-2" d="M98.11,144.8c-.59-.61-.89-1.4-.89-2.39s.3-1.78,.91-2.37c.61-.59,1.33-.88,2.17-.88s1.51,.36,2.03,1.08v-3.49h1.32v8.87h-1.32v-.96c-.49,.7-1.2,1.05-2.14,1.05-.8,0-1.49-.3-2.08-.91Zm.44-2.34c0,.61,.19,1.11,.58,1.49,.39,.38,.84,.57,1.36,.57s.96-.19,1.32-.58c.36-.39,.54-.88,.54-1.49s-.18-1.11-.54-1.52c-.36-.41-.81-.61-1.34-.61s-.98,.2-1.36,.61-.57,.91-.57,1.52Z"/>
        <path class="cls-2" d="M117.33,145.61h-3.62v-8.35h3.21c.56,0,1.04,.07,1.45,.2,.41,.14,.71,.32,.9,.55,.38,.43,.57,.92,.57,1.46,0,.65-.2,1.14-.61,1.46-.15,.11-.25,.18-.31,.21-.06,.03-.15,.07-.3,.14,.51,.11,.92,.34,1.22,.7s.46,.79,.46,1.32c0,.58-.2,1.1-.59,1.54-.46,.52-1.26,.78-2.39,.78Zm-2.22-4.89h1.77c1.01,0,1.51-.35,1.51-1.04,0-.4-.12-.69-.37-.86s-.62-.26-1.13-.26h-1.78v2.16Zm0,3.59h2.19c.51,0,.9-.08,1.18-.24s.41-.47,.41-.93c0-.74-.59-1.11-1.76-1.11h-2.01v2.28Z"/>
        <path class="cls-2" d="M124.93,148.15c-.57,0-1.1-.21-1.56-.63l.6-1.09c.28,.26,.56,.39,.86,.39s.54-.11,.72-.32c.18-.21,.28-.45,.28-.71,0-.11-.85-2.29-2.54-6.54h1.42l1.88,4.68,1.88-4.68h1.42l-3.05,7.55c-.18,.41-.44,.74-.78,.98-.34,.24-.71,.36-1.12,.36Z"/>
        <path class="cls-2" d="M142.84,144.33c.48,0,.89-.08,1.24-.24,.35-.16,.71-.42,1.09-.78l.9,.93c-.87,.98-1.94,1.47-3.18,1.47s-2.28-.41-3.11-1.22c-.82-.81-1.23-1.84-1.23-3.08s.42-2.28,1.26-3.11c.84-.83,1.9-1.24,3.18-1.24s2.35,.48,3.21,1.43l-.89,.98c-.39-.38-.77-.65-1.12-.8-.35-.15-.76-.23-1.23-.23-.84,0-1.54,.27-2.1,.82-.57,.55-.85,1.24-.85,2.09s.28,1.56,.84,2.13c.56,.57,1.23,.85,2,.85Z"/>
        <path class="cls-2" d="M153.24,140.51c-.65,0-1.15,.21-1.48,.65-.33,.43-.5,1.01-.5,1.73v2.72h-1.32v-6.36h1.32v1.28c.21-.4,.5-.72,.87-.98,.37-.25,.75-.39,1.16-.39v1.35h-.06Z"/>
        <path class="cls-2" d="M162.85,143.02h-4.93c.03,.46,.24,.83,.63,1.12,.39,.28,.83,.42,1.32,.42,.79,0,1.39-.25,1.8-.75l.76,.84c-.68,.71-1.56,1.06-2.65,1.06-.88,0-1.63-.3-2.25-.89-.62-.59-.93-1.39-.93-2.39s.32-1.79,.95-2.38c.63-.59,1.37-.88,2.23-.88s1.58,.26,2.18,.78c.6,.52,.9,1.24,.9,2.16v.92Zm-4.93-1.05h3.6c0-.53-.17-.94-.5-1.23-.33-.29-.74-.43-1.22-.43s-.92,.15-1.31,.45-.58,.7-.58,1.21Z"/>
        <path class="cls-2" d="M171.76,145.61h-1.21v-.85c-.52,.63-1.22,.94-2.09,.94-.65,0-1.2-.19-1.62-.56-.43-.37-.64-.87-.64-1.5s.23-1.09,.69-1.4,1.08-.47,1.86-.47h1.71v-.24c0-.84-.47-1.27-1.39-1.27-.58,0-1.19,.22-1.82,.65l-.59-.84c.76-.61,1.63-.92,2.6-.92,.74,0,1.34,.19,1.81,.57s.7,.97,.7,1.79v4.1Zm-1.32-2.37v-.54h-1.49c-.95,0-1.43,.3-1.43,.91,0,.31,.12,.55,.35,.71,.24,.16,.57,.25,.99,.25s.79-.12,1.11-.36c.31-.24,.47-.56,.47-.97Z"/>
        <path class="cls-2" d="M177.52,140.33v3.23c0,.3,.08,.54,.24,.72s.38,.27,.66,.27,.56-.14,.82-.42l.54,.94c-.46,.42-.98,.63-1.54,.63s-1.04-.2-1.44-.59c-.4-.39-.6-.93-.6-1.6v-3.19h-.79v-1.08h.79v-2h1.32v2h1.65v1.08h-1.65Z"/>
        <path class="cls-2" d="M183.28,137.99c-.17-.17-.25-.37-.25-.6s.08-.43,.25-.6c.17-.17,.36-.25,.59-.25s.43,.08,.59,.25c.17,.17,.25,.37,.25,.6s-.08,.43-.25,.6c-.17,.17-.36,.25-.59,.25s-.43-.08-.59-.25Zm1.24,7.63h-1.32v-6.36h1.32v6.36Z"/>
        <path class="cls-2" d="M190.46,145.61l-2.53-6.36h1.37l1.91,4.8,1.91-4.8h1.37l-2.53,6.36h-1.51Z"/>
        <path class="cls-2" d="M203.77,143.02h-4.93c.03,.46,.24,.83,.63,1.12,.39,.28,.83,.42,1.32,.42,.79,0,1.39-.25,1.8-.75l.76,.84c-.68,.71-1.56,1.06-2.65,1.06-.88,0-1.63-.3-2.25-.89-.62-.59-.93-1.39-.93-2.39s.32-1.79,.95-2.38c.63-.59,1.37-.88,2.23-.88s1.58,.26,2.18,.78c.6,.52,.9,1.24,.9,2.16v.92Zm-4.93-1.05h3.6c0-.53-.17-.94-.5-1.23-.33-.29-.74-.43-1.22-.43s-.92,.15-1.31,.45-.58,.7-.58,1.21Z"/>
        <path class="cls-2" d="M212.06,143.71c0,.61-.22,1.09-.65,1.45-.43,.36-.99,.54-1.67,.54-.46,0-.93-.08-1.42-.25-.49-.17-.93-.4-1.31-.71l.64-1.04c.73,.56,1.44,.84,2.13,.84,.3,0,.54-.07,.71-.21,.17-.14,.26-.32,.26-.53,0-.32-.42-.61-1.25-.86-.06-.02-.11-.04-.14-.05-1.31-.36-1.96-.96-1.96-1.79,0-.59,.23-1.06,.68-1.42,.45-.35,1.04-.53,1.77-.53s1.41,.22,2.06,.65l-.5,.99c-.51-.34-1.07-.51-1.67-.51-.32,0-.57,.06-.77,.17-.2,.12-.3,.29-.3,.52,0,.21,.1,.36,.31,.45,.14,.07,.34,.14,.6,.2,.26,.06,.48,.13,.68,.19,.2,.06,.39,.14,.57,.22s.38,.19,.6,.33c.43,.29,.64,.73,.64,1.34Z"/>
      </g>
    </g>
  </g>
</svg>